<?xml version="1.0" encoding="UTF-8"?>
<svg width="639px" height="188px" viewBox="0 0 639 188" version="1.1" xmlns="http://www.w3.org/2000/svg" xmlns:xlink="http://www.w3.org/1999/xlink">
    <title>winecom_horizontal_logo</title>
    <g id="Wine.com---New" stroke="none" stroke-width="1" fill="none" fill-rule="evenodd">
        <g id="Wine.com-TM" transform="translate(116.000000, 51.000000)" fill="#303239" fill-rule="nonzero">
            <path d="M19.22,23.49 L25.67,46.92 C26.94,51.45 28.32,57.86 28.32,57.86 L28.55,57.86 C28.55,57.86 29.88,51.32 31.11,46.56 L37.14,23.41 L52.79,23.35 L59.24,46.45 C60.51,51.31 62.01,57.84 62.01,57.84 L62.24,57.84 C62.24,57.84 63.69,51.3 64.92,46.76 L71.29,23.27 L89.55,23.19 L71.98,79.92 L54.63,79.99 L47.72,54.35 C46.45,49.93 45.18,44.18 45.18,44.18 L44.95,44.18 C44.95,44.18 43.61,49.94 42.38,54.37 L35.57,80.07 L18.45,80.14 L0.41,23.56 L19.22,23.49 Z" id="Path"></path>
            <path d="M96.57,0.71 L115.06,0.63 L115.12,15.24 L96.63,15.32 L96.57,0.71 L96.57,0.71 Z M96.66,23.17 L115.15,23.09 L115.38,79.74 L96.89,79.82 L96.66,23.17 L96.66,23.17 Z" id="Shape"></path>
            <path d="M126.83,23.05 L144.64,22.98 L144.67,30.73 L145.01,30.73 C149.29,24.62 154.84,21.28 162.89,21.2497885 C175.59,21.2 183.11,30.02 183.17,42.63 L183.32,79.48 L164.83,79.56 L164.69,46.36 C164.67,40.39 161.59,36.3 155.58,36.33 C149.46,36.36 145.39,41.35 145.42,48.32 L145.55,79.63 L127.06,79.71 L126.83,23.06 L126.83,23.06 L126.83,23.05 Z" id="Path"></path>
            <path d="M191.809697,51 C191.74,34.07 203.82,21.07 221.51,20.9997451 C229.79,20.97 236.38,23.59 241.38,28 C248.32,34.17 251.77,44 251.7,55.51 L209.97,55.68 C211.14,63.31 215.46,68.05 223.06,68.02 C227.94,68 231.1,65.88 232.68,62.34 L250.71,62.27 C249.48,67.36 246.1,72.25 241.01,75.7 C236.15,79.04 230.26,80.94 222.89,80.9803701 C203.72,81.06 191.88,68.16 191.809697,51.01 L191.809697,51.01 L191.809697,51 Z M232.95,44.84 C232.24,38.09 227.91,33.8 221.9,33.8199304 C214.87,33.85 211.26,38.18 210.04,44.93 L232.95,44.84 L232.95,44.84 Z" id="Shape"></path>
            <circle id="Oval" cx="266.89" cy="69.92" r="9.55"></circle>
            <path d="M280.829695,50.85 C280.76,33.81 292.73,20.81 311.1,20.7395914 C326.86,20.67 336.99,29.6 338.75,42.31 L320.94,42.38 C319.78,37.29 316.59,33.99 311.38,34.01 C303.44,34.04 299.5,40.48 299.54,50.77 C299.58,60.84 303.58,67.24 311.52,67.21 C317.3,67.19 320.81,63.85 321.57,57.43 L339.26,57.36 C338.86,70.42 328.24,80.64 311.8,80.7103701 C293.09,80.79 280.9,67.89 280.829695,50.85 L280.829695,50.85 Z" id="Path"></path>
            <path d="M345.35,50.58 C345.28,33.54 357.7,20.54 376.3,20.4596299 C395.01,20.38 407.31,33.28 407.3803,50.32 C407.45,67.36 395.26,80.36 376.54,80.4403701 C357.94,80.52 345.41,67.62 345.34,50.58 L345.35,50.58 Z M388.67,50.4 C388.63,40.11 384.29,33.16 376.24,33.1899033 C368.19,33.22 364.02,40.21 364.06,50.5 C364.1,60.79 368.33,67.63 376.38,67.6000983 C384.43,67.57 388.71,60.69 388.67,50.4 L388.67,50.4 Z" id="Shape"></path>
            <path d="M416.34,21.85 L434.03,21.78 L434.06,29.86 L434.4,29.86 C438,23.98 443.55,20.08 451.94,20.05 C459.54,20.02 465.34,23.87 468.31,29.94 L468.54,29.94 C473.05,23.06 479.27,19.94 486.76,19.8997858 C499.92,19.85 506.53,28.56 506.58,41.28 L506.73,78.13 L488.24,78.21 L488.1,44.57 C488.07,38.48 485.45,34.95 479.89,34.98 C473.99,35 470.72,39.78 470.75,46.53 L470.88,78.29 L452.39,78.37 L452.25,44.73 C452.22,38.64 449.6,35.11 444.04,35.14 C438.48,35.17 434.87,39.94 434.9,46.69 L435.03,78.45 L416.54,78.53 L416.31,21.88 L416.34,21.85 Z" id="Path"></path>
            <polygon id="Path" points="505.93 18.09 512.86 18.06 512.86 19.09 509.99 19.09 510.02 26.58 508.81 26.58 508.78 19.1 505.92 19.1 505.92 18.08 505.93 18.08"></polygon>
            <path d="M514.42,18.06 L515.97,18.06 L517.8,22.67 C518.16,23.6 518.69,25.33 518.69,25.33 L518.71,25.33 C518.71,25.33 519.24,23.6 519.59,22.66 L521.35,18.03 L522.94,18.03 L522.98,26.54 L521.83,26.54 L521.81,21.4 C521.81,20.65 521.87,19.22 521.87,19.22 L521.85,19.22 C521.85,19.22 521.5,20.5 521.25,21.17 L519.15,26.57 L518.21,26.57 L516.07,21.19 C515.82,20.53 515.45,19.25 515.45,19.25 L515.43,19.25 C515.43,19.25 515.51,20.68 515.51,21.43 L515.53,26.58 L514.45,26.58 L514.41,18.07 L514.41,18.07 L514.42,18.06 Z" id="Path"></path>
        </g>
        <g id="Person-with-bottle-logo">
            <path d="M92.45,119.78 L85,105.1 C92.45,98.16 96.22,88.46 96.180315,77.23 C96.14,68.26 92.96,60.62 86.98,55.13 C82.92,51.4 77.63,48.7 71.49,47.18 C74.58,41.57 74.48,33.79 73.22,29.38 C71.98,25.04 69.36,21.49 65.87,19.38 C62.31,17.23 58.06,16.7 53.92,17.89 C49.78,19.08 46.46,21.78 44.57,25.49 C43.07,28.45 42.57,31.9 43.1,35.42 C42.6,35.28 42.1,35.15 41.58,35.05 L26.8,5.44 C26.77,5.37 26.75,5.3 26.71,5.23 C24.02,-0.07 16.3,-1.37 9.13,2.27 C2,5.89 -1.5,12.83 1.1,18.12 L1.1,18.12 L16,47.96 C13.58,53.1 13.66,58.87 16.29,64.05 L20.42,72.19 C20.4,72.26 20.38,72.34 20.36,72.41 C19.66,75.71 19.2,79.88 19.21,82.78 C19.25,92.8 24.29,101.93 31.42,108.19 C30.39,121.32 29.6,153.58 29.3,167.33 L29.3,167.61 C29.28,168.02 29.28,168.37 29.28,168.68 C29.28,168.94 29.28,169.25 29.28,169.41 C29.24,169.46 29.18,169.55 29.07,169.69 C28.89,169.86 28.29,170.23 27.85,170.5 C26.97,171.03 25.88,171.7 24.86,172.63 C22.06,175.19 21.1,179.55 22.59,182.98 C23.92,186.06 26.92,187.82 30.7,187.810042 C31,187.810042 31.3,187.810042 31.61,187.77 C35.02,187.51 39.1,187.05 43.72,186.41 C46.61,186.01 48.96,184.47 50.53,181.94 C51.8,179.9 52.2,177.76 52.32,176.66 C52.86,172 53.47,165.61 54.11,158.84 C54.64,153.32 55.21,147.28 55.81,141.57 C57.13,143.62 58.64,145.32 60.3,146.65 C60.65,149.98 61,153.43 61.34,156.85 C62.08,164.17 62.77,171.09 63.46,176.61 C63.6,177.7 64.02,179.84 65.3,181.87 C66.88,184.38 69.25,185.9 72.14,186.28 C76.77,186.88 80.85,187.3 84.26,187.54 C84.57,187.56 84.87,187.57 85.17,187.57 C88.95,187.55 91.93,185.77 93.24,182.68 C94.7,179.24 93.71,174.89 90.88,172.35 C89.85,171.43 88.76,170.77 87.87,170.24 C87.43,169.98 86.83,169.62 86.64,169.44 C86.53,169.31 86.46,169.22 86.43,169.16 C86.42,168.99 86.42,168.68 86.41,168.43 C86.41,168.12 86.41,167.77 86.39,167.36 C86.3,164.47 86.03,159.46 85.78,154.61 C85.6,151.18 85.42,147.93 85.32,145.51 C98.58,137.21 95.61,125.96 92.46,119.76 L92.46,119.78 L92.45,119.78 Z M89.67,77.26 C89.73,92.29 82.08,101.09 72.71,105.79 C73.61,103.39 73.68,101.27 73.64,100.18 C73.55,98.11 72.79,96.19 71.53,94.74 C72.74,93.68 73.79,92.51 74.68,91.23 C77.73,86.8 78.9,80.99 78.24,73.47 C78.08,71.68 76.5,70.35 74.71,70.51 C72.92,70.67 71.6,72.25 71.75,74.04 C71.91,75.9 71.94,77.61 71.84,79.18 L58.86,53.6 C59.5,53.71 60.16,53.77 60.82,53.77 C61.87,53.77 62.95,53.62 64.05,53.3 C64.64,53.13 65.19,52.92 65.71,52.69 C73.12,53.73 89.57,58.19 89.65,77.27 L89.67,77.27 L89.67,77.26 Z M55.65,23.91 C56.53,23.66 57.39,23.54 58.23,23.5298954 C62.33,23.51 65.83,26.36 67.19,31.1 C68.36,35.18 68.12,45.6 62.35,47.25 C56.57,48.9 50.85,40.2 49.68,36.12 C48.04,30.41 50.5,25.39 55.65,23.91 L55.65,23.91 Z M25.72,82.76 C25.72,82.32 25.73,81.8 25.76,81.23 C25.88,81.42 25.96,81.55 25.98,81.6 C34.45,95.75 46.74,100.71 54.67,100.67 C58.04,100.66 61.12,100.2 64.19,99.21 C65.91,98.65 67.06,98.81 67.13,100.47 C67.27,103.79 65.84,110.19 52.3,110.250105 C47.21,110.27 40.59,107.42 35.45,102.99 C31.03,99.17 25.75,92.57 25.71,82.77 L25.71,82.77 L25.72,82.76 Z M47.62,158.23 C46.98,164.96 46.37,171.32 45.84,175.91 C45.71,177.02 45.16,179.63 42.81,179.96 C38.38,180.57 34.33,181.03 31.1,181.28 C29.71,181.39 28.86,181.09 28.56,180.39 C28.18,179.5 28.5,178.12 29.25,177.43 C29.8,176.92 30.53,176.48 31.23,176.05 C32.25,175.43 33.3,174.79 34.09,173.81 C35.67,171.86 35.79,170.57 35.79,168.67 L35.79,167.46 C36.07,154.99 36.75,127.23 37.63,112.62 C39.05,113.42 40.5,114.12 41.98,114.7 L50.39,131.29 C49.41,139.22 48.47,149.09 47.6,158.23 L47.62,158.23 L47.62,158.23 Z M86.51,177.2 C87.27,177.88 87.6,179.26 87.23,180.15 C86.94,180.85 86.08,181.15 84.69,181.06 C81.45,180.84 77.4,180.42 72.97,179.84 C70.62,179.53 70.05,176.93 69.91,175.82 C69.23,170.38 68.54,163.5 67.81,156.21 C67.6,154.12 67.39,152.01 67.17,149.93 C70.73,150.68 74.7,150.28 78.94,148.69 C79.04,150.59 79.15,152.75 79.27,154.97 C79.53,159.78 79.79,164.75 79.88,167.57 C79.89,167.92 79.89,168.23 79.9,168.5 C79.92,170.4 80.04,171.69 81.64,173.63 C82.44,174.6 83.5,175.23 84.52,175.85 C85.23,176.27 85.96,176.71 86.51,177.21 L86.51,177.21 L86.51,177.2 Z" id="Shape" fill="#303239" fill-rule="nonzero"></path>
            <path d="M79.74,109.19 C68.83,116.32 57.12,116.72 52.77,116.74 L52.34,116.74 C51.67,116.74 51,116.72 50.33,116.66 L60.18,136.08 C64.31,144.22 70.43,145.88 79.45,141.31 C88.45,136.74 90.72,130.84 86.61,122.73 L79.74,109.18 L79.74,109.18 L79.74,109.19 Z" id="Path" fill="#B71F39"></path>
            <path d="M22.5,49.66 C21.26,51.75 19.56,56.02 22.13,61.09 L26.8,70.29 C29.2,74.4 31.52,78.16 31.54,78.2 L31.56,78.24 C38.59,89.99 48.29,94.19 54.65,94.1601594 L54.76,94.1601594 C60.97,94.12 66.08,92.42 69.07,88.15 L48.57,47.74 C46,42.67 41.55,41.52 39.13,41.29 L37.34,41.12 L24.92,16.18 C23.41,18.12 21.31,19.87 18.73,21.17 C16.15,22.48 13.49,23.14 11.03,23.21 L23.43,48.11 L22.51,49.66 L22.5,49.66 Z" id="Path" fill="#B71F39"></path>
            <path d="M20.88,8.19 C19.94,6.34 16.05,5.7 11.93,7.79 C7.81,9.88 6.02,13.4 6.96,15.25 C7.9,17.1 11.8,17.73 15.92,15.65 C20.04,13.56 21.82,10.05 20.88,8.19 L20.88,8.19 Z" id="Path" fill="#B71F39"></path>
        </g>
    </g>
</svg>